<?xml version="1.0" standalone="no"?>
<!DOCTYPE svg PUBLIC "-//W3C//DTD SVG 20010904//EN"
 "http://www.w3.org/TR/2001/REC-SVG-20010904/DTD/svg10.dtd">
<svg version="1.0" xmlns="http://www.w3.org/2000/svg"
 width="1242.000000pt" height="1242.000000pt" viewBox="0 0 1242.000000 1242.000000"
 preserveAspectRatio="xMidYMid meet">
<metadata>
Created by potrace 1.14, written by Peter Selinger 2001-2017
</metadata>
<g transform="translate(0.000000,1242.000000) scale(0.100000,-0.100000)"
fill="#000000" stroke="none">
<path d="M6447 12404 c-3 -3 -33 -9 -68 -14 -35 -6 -84 -13 -109 -17 -25 -4
-58 -7 -75 -6 -357 12 -463 6 -627 -32 -35 -8 -81 -17 -103 -20 -125 -19 -293
-88 -337 -139 -31 -36 -76 -101 -105 -153 -15 -28 -48 -73 -73 -102 -58 -67
-102 -148 -114 -211 -1 -3 -4 -9 -8 -15 -3 -5 -9 -32 -13 -60 -4 -27 -10 -59
-12 -70 -16 -76 -28 -295 -18 -350 14 -81 33 -140 56 -169 11 -14 18 -30 14
-35 -3 -5 -1 -12 3 -15 8 -4 9 -61 3 -101 -1 -13 -81 -100 -81 -89 0 5 -7 -1
-15 -13 -20 -28 -118 -89 -237 -146 -53 -26 -100 -47 -103 -47 -3 0 -39 -16
-79 -35 -41 -19 -77 -35 -81 -35 -7 0 -69 -47 -115 -87 -34 -30 -99 -73 -110
-73 -4 0 -10 -4 -12 -8 -1 -5 -53 -34 -115 -65 -61 -31 -149 -79 -194 -107
-94 -59 -146 -83 -209 -100 -49 -13 -53 -14 -120 -25 -72 -12 -87 -15 -210
-41 -14 -2 -34 -8 -45 -11 -11 -4 -22 -7 -25 -8 -3 0 -43 -14 -90 -30 -47 -16
-87 -30 -90 -30 -3 -1 -12 -4 -20 -8 -8 -3 -42 -13 -75 -22 -33 -9 -71 -21
-85 -25 -25 -9 -132 -39 -160 -46 -68 -16 -202 -57 -235 -73 -71 -32 -138 -52
-235 -67 -57 -9 -180 -43 -250 -70 -114 -44 -140 -57 -140 -70 0 -7 -6 -19
-13 -26 -27 -27 -96 -178 -103 -225 -12 -88 -11 -514 2 -565 6 -26 9 -49 6
-52 -3 -3 -1 -6 5 -6 5 0 9 -10 8 -22 -1 -13 2 -33 6 -45 5 -15 5 -23 -2 -23
-6 0 -7 -5 -3 -12 8 -12 10 -107 17 -657 l4 -275 -39 -82 c-30 -65 -39 -98
-43 -154 -2 -39 -8 -76 -12 -83 -4 -6 -10 -19 -12 -27 -10 -29 0 -755 9 -755
2 0 4 -614 5 -1365 2 -751 5 -1374 8 -1385 3 -12 8 -45 12 -75 12 -106 14
-115 15 -115 1 0 3 -27 5 -60 17 -260 24 -480 29 -997 2 -201 7 -371 10 -376
4 -6 2 -13 -2 -16 -9 -5 -6 -77 3 -103 2 -7 1 -13 -3 -13 -4 0 -7 -12 -6 -27
1 -16 3 -28 4 -28 6 0 4 -57 -2 -61 -5 -3 -5 -10 -2 -16 3 -5 8 -58 9 -116 2
-59 4 -108 5 -109 3 -4 4 -9 15 -63 10 -52 10 -50 18 -70 8 -18 18 -65 22
-105 2 -16 4 -31 5 -32 3 -4 5 -12 14 -63 5 -25 10 -54 13 -65 2 -11 6 -31 9
-45 7 -40 46 -132 70 -169 13 -19 21 -38 18 -43 -3 -4 0 -8 5 -8 6 0 11 -5 11
-11 0 -6 26 -63 57 -127 31 -65 57 -120 57 -124 1 -3 4 -10 9 -14 4 -4 7 -14
7 -21 0 -30 136 -123 179 -123 6 0 11 -5 11 -11 0 -5 4 -8 9 -4 5 3 12 1 16
-5 4 -6 11 -8 16 -5 5 4 9 1 9 -4 0 -6 8 -11 18 -11 10 0 22 -4 27 -8 6 -5 37
-19 70 -31 33 -13 68 -27 77 -31 30 -16 110 -23 288 -24 159 -1 178 -3 205
-22 39 -27 82 -41 125 -43 20 -1 45 -3 57 -5 12 -3 43 -8 70 -12 26 -3 57 -8
68 -11 11 -2 31 -6 45 -9 14 -3 45 -14 69 -25 24 -10 50 -19 57 -19 8 0 14 -4
14 -9 0 -8 40 -26 68 -32 4 0 15 -5 25 -11 10 -5 27 -11 38 -14 45 -10 56 -13
94 -29 22 -9 90 -41 150 -70 100 -49 129 -60 190 -70 11 -2 20 -4 20 -5 0 -2
98 -17 175 -25 14 -2 25 -4 25 -5 0 -1 11 -3 25 -6 14 -2 36 -6 50 -8 14 -3
59 -11 100 -19 41 -8 82 -16 90 -17 55 -7 694 -7 730 1 25 5 55 12 67 14 28 6
61 12 128 20 28 3 61 9 75 12 119 28 1001 8 1053 -24 6 -4 66 -8 134 -9 68 -2
128 -6 133 -9 5 -3 11 -1 15 5 4 6 11 8 16 4 14 -8 132 -9 146 -1 6 4 14 3 17
-1 3 -5 18 -7 33 -5 16 2 33 4 38 4 6 -1 39 -2 73 -3 35 -2 66 0 68 4 3 4 15
3 28 -2 12 -4 29 -5 36 0 7 5 23 5 34 1 24 -8 58 -7 75 3 6 4 11 4 11 -1 0
-10 182 -9 198 1 7 4 12 2 12 -4 0 -7 6 -8 18 -1 10 5 23 6 29 3 15 -9 108 -7
124 3 7 5 10 4 6 -1 -7 -12 134 -11 152 1 7 4 16 4 20 -1 8 -12 161 -12 161 0
0 5 6 4 13 -1 6 -5 21 -8 32 -6 11 2 34 5 50 7 17 2 30 5 30 6 0 1 7 3 15 5 8
1 35 8 60 15 25 7 52 14 60 15 8 2 38 9 65 15 28 6 62 13 77 15 15 2 36 6 47
10 11 3 28 8 38 10 10 2 36 9 58 15 22 6 48 12 58 15 9 2 22 7 27 10 5 3 19 8
29 10 11 2 61 18 113 36 51 17 109 36 128 41 124 32 138 35 189 44 19 3 44 9
55 13 12 5 27 6 34 4 6 -3 12 0 12 5 0 5 6 9 13 9 14 -2 117 28 167 48 88 35
174 67 189 70 26 6 171 64 205 82 37 21 533 517 551 553 7 14 20 65 30 114 9
50 20 97 25 105 20 38 27 119 35 367 3 122 11 223 20 256 7 29 16 78 20 107 3
30 12 85 20 123 21 99 19 193 -9 332 -20 99 -45 251 -71 426 -19 130 -23 303
-7 323 11 13 59 143 72 194 4 17 8 307 9 645 l2 613 24 90 24 90 -4 970 c-2
534 -6 1031 -9 1106 l-5 137 58 118 c70 144 95 219 125 374 23 122 45 185 80
225 14 17 26 35 27 40 0 6 2 377 4 825 3 448 5 860 5 915 1 55 1 110 1 122 -1
18 -11 25 -53 38 -68 21 -150 43 -180 49 -64 12 -145 24 -158 25 -112 2 -216
16 -268 36 -20 8 -64 22 -97 31 -33 9 -73 22 -90 29 -41 19 -275 117 -285 120
-61 20 -123 63 -204 139 -33 31 -63 56 -67 56 -4 0 -9 4 -11 8 -7 18 -64 52
-233 142 -55 29 -104 56 -110 60 -33 24 -145 79 -161 79 -42 1 -212 11 -256
15 -26 3 -67 14 -91 25 -24 11 -66 28 -93 39 -27 10 -58 23 -69 27 -11 4 -23
7 -27 7 -5 -1 -8 2 -8 8 0 5 -7 10 -15 10 -8 0 -29 9 -47 20 -18 11 -49 25
-69 30 -31 9 -155 81 -169 99 -21 26 -163 111 -186 111 -14 0 -95 39 -114 55
-8 7 -28 16 -45 19 -16 4 -38 17 -47 30 -17 24 -64 174 -74 236 -3 19 -9 51
-14 70 -4 19 -11 62 -15 95 -4 33 -8 74 -10 90 -2 17 -7 57 -10 90 -15 158
-26 215 -62 305 -39 97 -71 150 -119 197 -23 23 -51 59 -60 80 -24 51 -124
148 -209 203 l-69 45 -317 2 c-175 1 -319 -1 -322 -3z"/>
</g>
</svg>
